<svg xmlns="http://www.w3.org/2000/svg" width="60.002" height="60" viewBox="406 0 60.002 60" fill="none"><path d="m453.877 31.147 1.45.386.002-.01zm-12.63 12.63-.387-1.45-.012.004zm-9.266 0-.387 1.45.011.002zm-13.541-6.756 1.295-.758-.005-.009-.005-.009zm.883-5.874-1.454.37.002.008.003.008zm0-9.266-1.45-.387-.002.011zm12.63-12.63.387 1.449.006-.002zm9.294-.028.386-1.45-.011-.002zm12.63 12.63-1.449.387.001.006zm-9.216-1.292a1.501 1.501 0 0 0-2.122-2.121zm-16.122 11.878a1.501 1.501 0 0 0 2.122 2.121zm27.561-5.925c0-.058.028.02-.189.287-.216.267-.54.56-.984.934-.401.338-.931.767-1.362 1.204-.42.427-.935 1.04-1.14 1.832l2.904.751c-.002.01.006-.029.068-.12.063-.093.16-.21.304-.356.306-.31.681-.614 1.16-1.017.434-.367.964-.824 1.381-1.339.416-.514.858-1.25.858-2.176zm-3.672 4.246c-.211.79-.079 1.576.072 2.169.154.603.397 1.24.576 1.737.198.548.333.96.387 1.294.055.337-.011.372.029.303l2.59 1.515c.468-.8.447-1.657.342-2.3-.105-.645-.334-1.3-.526-1.831-.21-.583-.383-1.037-.491-1.461-.112-.436-.091-.615-.081-.653zm1.064 5.503c.038-.065.035.013-.291.135-.321.12-.749.21-1.322.31-.52.093-1.192.199-1.788.364-.583.16-1.332.436-1.908 1.012l2.122 2.12a.542.542 0 0 1 .136-.081 2.71 2.71 0 0 1 .449-.16c.42-.116.9-.192 1.511-.3.557-.098 1.239-.226 1.852-.456.609-.228 1.363-.633 1.829-1.429zm-5.309 1.82c-.575.576-.85 1.325-1.011 1.908-.165.596-.271 1.268-.363 1.788-.102.573-.191 1-.311 1.322-.122.326-.2.33-.135.291l1.515 2.59c.796-.466 1.201-1.22 1.429-1.829.23-.613.357-1.295.456-1.852.108-.611.184-1.09.3-1.511a2.8 2.8 0 0 1 .16-.45.549.549 0 0 1 .082-.135zm-1.82 5.31c.069-.04.034.025-.303-.03-.335-.054-.746-.189-1.295-.387-.496-.179-1.133-.422-1.736-.576-.593-.151-1.38-.283-2.169-.072l.773 2.898c.038-.01.217-.03.653.08.424.11.878.282 1.461.492.53.192 1.186.421 1.831.526.643.105 1.5.126 2.3-.342zm-5.515-1.062c-.779.215-1.386.727-1.811 1.148-.434.43-.863.958-1.2 1.356-.374.441-.666.763-.932.977-.266.214-.345.188-.291.188v3c.922 0 1.657-.436 2.172-.851.516-.415.973-.942 1.341-1.376.404-.477.708-.853 1.021-1.162.147-.146.266-.246.362-.311.095-.066.138-.078.136-.077zM436.614 46c.058 0-.02.028-.288-.189-.267-.216-.559-.54-.934-.984-.338-.401-.766-.93-1.204-1.362-.426-.42-1.04-.935-1.832-1.14l-.751 2.904c-.009-.002.03.006.121.069.092.062.209.159.356.303.31.306.614.681 1.017 1.16.367.435.824.964 1.338 1.38.514.417 1.25.859 2.177.859zm-4.247-3.672c-.789-.21-1.575-.08-2.168.072-.604.154-1.241.397-1.737.576-.548.198-.96.333-1.294.387-.338.055-.373-.01-.304.03l-1.514 2.589c.799.468 1.657.447 2.3.342.645-.105 1.3-.334 1.831-.526.582-.21 1.037-.383 1.461-.491.436-.112.614-.09.652-.08zm-5.503 1.064c.065.038-.012.035-.134-.291-.12-.321-.21-.749-.311-1.323-.092-.519-.198-1.19-.363-1.787-.161-.583-.436-1.332-1.012-1.907l-2.121 2.12c-.001 0 .032.033.082.137.05.104.104.25.159.449.116.42.193.9.301 1.51.098.558.226 1.24.456 1.853.227.609.633 1.363 1.429 1.829zm-1.82-5.309c-.576-.575-1.325-.85-1.907-1.011-.596-.165-1.268-.271-1.788-.363-.574-.102-1.001-.191-1.322-.311-.326-.122-.33-.2-.292-.135l-2.589 1.515c.465.796 1.22 1.201 1.828 1.429.613.23 1.296.357 1.853.456.611.108 1.09.184 1.511.3.199.056.345.11.449.16.103.05.136.082.136.082zm-5.319-1.838c.04.067-.026.035.025-.297.052-.33.183-.74.379-1.286.176-.495.418-1.132.572-1.734.15-.592.282-1.379.071-2.168l-2.898.773c.01.038.031.217-.08.654-.109.426-.281.879-.49 1.464-.19.531-.418 1.19-.518 1.838-.101.65-.111 1.51.37 2.307zm1.052-5.468c-.203-.798-.716-1.416-1.14-1.848-.434-.44-.964-.869-1.366-1.206-.446-.374-.769-.664-.985-.929-.215-.264-.186-.34-.186-.28h-3c0 .928.443 1.663.861 2.175.417.513.947.968 1.381 1.332.477.4.851.702 1.155 1.011.143.146.24.263.302.356.061.092.071.133.07.128zm-3.677-4.263c0 .058-.028-.02.189-.288.216-.267.54-.56.984-.934.401-.338.931-.766 1.362-1.204.42-.426.935-1.04 1.14-1.832l-2.904-.75c.002-.01-.006.029-.068.12-.063.092-.16.21-.304.356-.306.31-.681.614-1.16 1.017-.434.366-.964.824-1.381 1.338-.416.514-.858 1.25-.858 2.177zm3.672-4.247c.211-.789.079-1.575-.072-2.168-.154-.604-.397-1.24-.576-1.737-.198-.548-.333-.96-.387-1.294-.055-.337.011-.373-.029-.304l-2.59-1.514c-.468.8-.447 1.657-.342 2.3.105.645.334 1.3.526 1.83.21.584.383 1.038.491 1.462.112.436.091.614.081.652zm-1.064-5.503c-.038.065-.035-.012.291-.134.321-.12.749-.21 1.322-.311.52-.092 1.192-.198 1.788-.363.583-.161 1.332-.436 1.908-1.012l-2.122-2.121a.542.542 0 0 1-.136.082c-.104.05-.249.104-.449.16-.42.115-.9.192-1.511.3-.557.098-1.239.226-1.852.456-.609.227-1.363.633-1.829 1.429zm5.309-1.82c.575-.576.85-1.325 1.011-1.907.165-.597.271-1.268.363-1.788.102-.574.191-1.001.311-1.322.122-.326.2-.33.135-.292l-1.515-2.59c-.796.466-1.201 1.22-1.429 1.83-.23.612-.357 1.295-.456 1.852-.108.61-.184 1.09-.3 1.51-.056.2-.11.346-.16.45a.549.549 0 0 1-.082.136zm1.82-5.309c-.069.04-.034-.025.303.03.335.054.746.188 1.295.386.496.18 1.133.422 1.736.577.593.151 1.38.282 2.169.072l-.773-2.899c-.038.01-.217.031-.653-.08-.424-.109-.878-.281-1.461-.492-.53-.191-1.186-.42-1.831-.525-.643-.105-1.5-.126-2.3.342zm5.509 1.063c.787-.213 1.399-.726 1.831-1.152.441-.434.871-.966 1.212-1.369.376-.446.669-.77.937-.988.268-.217.346-.189.288-.189V4c-.927 0-1.663.442-2.177.859-.515.417-.973.947-1.341 1.383-.405.48-.712.858-1.026 1.168a2.752 2.752 0 0 1-.366.314.905.905 0 0 1-.107.064c-.025.012-.037.015-.036.015zM436.614 7c-.058 0 .02-.028.287.189.267.216.56.54.934.984.338.401.767.93 1.204 1.362.427.42 1.04.935 1.832 1.14l.751-2.904c.009.002-.029-.006-.121-.068a2.605 2.605 0 0 1-.355-.304c-.31-.306-.614-.681-1.017-1.16-.367-.434-.824-.964-1.339-1.38-.514-.417-1.25-.859-2.176-.859zm4.246 3.672c.789.21 1.576.08 2.169-.072.603-.154 1.24-.397 1.736-.576.549-.198.96-.333 1.295-.387.337-.055.372.01.303-.03l1.515-2.589c-.8-.468-1.657-.447-2.3-.342-.645.105-1.301.334-1.831.526-.583.21-1.037.383-1.461.491-.436.112-.615.09-.653.08zm5.503-1.064c-.065-.038.013-.035.135.291.12.321.209.748.311 1.323.092.519.198 1.19.363 1.787.161.583.436 1.332 1.011 1.907l2.122-2.12s-.032-.033-.082-.137a2.8 2.8 0 0 1-.16-.449c-.116-.42-.192-.9-.3-1.51-.099-.558-.226-1.24-.456-1.853-.228-.609-.633-1.363-1.429-1.829zm1.82 5.308c.576.576 1.325.851 1.908 1.012.596.165 1.268.271 1.788.363.573.102 1.001.191 1.322.311.326.122.329.2.291.135l2.59-1.515c-.466-.796-1.22-1.201-1.829-1.429-.613-.23-1.295-.357-1.852-.456-.611-.108-1.091-.184-1.511-.3a2.71 2.71 0 0 1-.449-.16.542.542 0 0 1-.136-.082zm5.309 1.82c-.04-.068.026-.033-.029.304-.054.335-.189.746-.387 1.294-.179.497-.422 1.134-.576 1.737-.151.593-.283 1.38-.072 2.169l2.898-.773c-.01-.038-.031-.217.081-.653.108-.424.281-.878.491-1.46.192-.531.421-1.187.526-1.832.105-.643.126-1.5-.342-2.3zm-1.063 5.51c.213.784.721 1.395 1.144 1.827.432.44.959.872 1.359 1.212.443.376.765.67.979.936.215.268.189.347.189.293h3c0-.923-.436-1.657-.851-2.172-.414-.516-.94-.974-1.373-1.342-.476-.405-.852-.712-1.159-1.026-.317-.323-.384-.484-.392-.513zm-9.89-3.807-14 14 2.122 2.122 14-14zM432.1 21a1 1 0 0 1-1 1v3a4 4 0 0 0 4-4zm-1 1a1 1 0 0 1-1-1h-3a4 4 0 0 0 4 4zm-1-1a1 1 0 0 1 1-1v-3a4 4 0 0 0-4 4zm1-1a1 1 0 0 1 1 1h3a4 4 0 0 0-4-4zm12 12a1 1 0 0 1-1 1v3a4 4 0 0 0 4-4zm-1 1a1 1 0 0 1-1-1h-3a4 4 0 0 0 4 4zm-1-1a1 1 0 0 1 1-1v-3a4 4 0 0 0-4 4zm1-1a1 1 0 0 1 1 1h3a4 4 0 0 0-4-4z" fill="#8b9bab"/></svg>