<svg width="28" height="28" viewBox="0 0 28 28" fill="none" xmlns="http://www.w3.org/2000/svg">
<path fill-rule="evenodd" clip-rule="evenodd" d="M14.0001 26.8333C6.91243 26.8333 1.16675 21.0876 1.16675 14C1.16675 6.9123 6.91243 1.16663 14.0001 1.16663C21.0877 1.16663 26.8334 6.9123 26.8334 14C26.8334 21.0876 21.0877 26.8333 14.0001 26.8333ZM14.0001 24.5C19.7991 24.5 24.5001 19.799 24.5001 14C24.5001 8.20097 19.7991 3.49996 14.0001 3.49996C8.20109 3.49996 3.50008 8.20097 3.50008 14C3.50008 19.799 8.20109 24.5 14.0001 24.5ZM10.1584 19.4916L14.0001 15.6499L17.8418 19.4916L19.4917 17.8417L15.65 14L19.4917 10.1583L17.8418 8.50834L14.0001 12.35L10.1584 8.50834L8.50846 10.1583L12.3502 14L8.50846 17.8417L10.1584 19.4916Z" fill="#FF0532"/>
</svg>
