<svg width="52" height="54" fill="none" xmlns="http://www.w3.org/2000/svg"><path d="M2 50.5a1.5 1.5 0 0 0 0 3v-3Zm48 3a1.5 1.5 0 0 0 0-3v3ZM16.06 20.94a1.5 1.5 0 0 0-2.12 2.12l2.12-2.12ZM23 30l-1.06 1.06a1.5 1.5 0 0 0 2.12 0L23 30Zm15.06-12.94a1.5 1.5 0 0 0-2.12-2.12l2.12 2.12ZM2 53.5h48v-3H2v3Zm24-11C15.23 42.5 6.5 33.77 6.5 23h-3c0 12.426 10.074 22.5 22.5 22.5v-3ZM6.5 23C6.5 12.23 15.23 3.5 26 3.5v-3C13.574.5 3.5 10.574 3.5 23h3ZM26 3.5c10.77 0 19.5 8.73 19.5 19.5h3C48.5 10.574 38.426.5 26 .5v3ZM45.5 23c0 10.77-8.73 19.5-19.5 19.5v3c12.426 0 22.5-10.074 22.5-22.5h-3Zm-31.56.06 8 8 2.12-2.12-8-8-2.12 2.12Zm10.12 8 14-14-2.12-2.12-14 14 2.12 2.12Z" fill="#376FFF"/></svg>