<svg width="60" height="60" fill="none" xmlns="http://www.w3.org/2000/svg"><path d="M19.032 16.863a1.5 1.5 0 1 1-.081-2.999l.081 3Zm7.783-1.713-.041-1.5a1.5 1.5 0 0 1 1.061.4l-1.02 1.1Zm4.206 1.859a1.5 1.5 0 1 1-2.042 2.198l2.042-2.198Zm-12.07-3.145 7.823-.213.082 2.998-7.824.214-.081-2.999Zm8.884.187 3.186 2.958-2.042 2.198-3.185-2.958 2.041-2.198Z" fill="#C1D3DE"/><path d="M39.098 11.34 46 8.056l10.49 21.655-7.25 3.38-10.143-21.75Z" stroke="#376FFF" stroke-width="3" stroke-linejoin="round"/><path d="M33.35 25.363a1.5 1.5 0 0 0-1.865 2.35l1.865-2.35Zm8.645 10.69a1.5 1.5 0 0 0 1.865-2.35l-1.865 2.35Zm-10.51-8.34 10.51 8.34 1.865-2.35-10.51-8.34-1.865 2.35Z" fill="#C1D3DE"/><path d="M40.959 16.863a1.5 1.5 0 1 0 .082-2.999l-.082 3Zm-7.783-1.713.041-1.5a1.5 1.5 0 0 0-1.061.4l1.02 1.1ZM21.242 26.232l-1.02-1.099a1.5 1.5 0 0 0 .087 2.274l.933-1.175Zm4.379 3.475-.933 1.175a1.5 1.5 0 0 0 1.567.185l-.634-1.36Zm7.43-1.81a1.5 1.5 0 1 0-1.267-2.719l1.268 2.72Zm8.953 5.799a1.5 1.5 0 1 0 1.847 2.364l-1.847-2.364Zm7.104-1.743a1.5 1.5 0 0 0-1.847-2.364l1.847 2.364ZM41.04 13.864l-7.824-.213-.081 2.999 7.823.213.082-2.999Zm-8.885.187L20.22 25.133l2.041 2.198L34.197 16.25l-2.041-2.198ZM20.309 27.407l4.38 3.475 1.864-2.35-4.379-3.475-1.865 2.35Zm5.945 3.66 6.798-3.17-1.268-2.719-6.797 3.17 1.268 2.719Zm17.597 4.993 5.257-4.107-1.847-2.364-5.257 4.107 1.847 2.364Z" fill="#376FFF"/><path d="M49.108 31.953a1.5 1.5 0 0 0-1.847-2.364l1.847 2.364Zm-36.202-1.648a1.5 1.5 0 0 0-1.812 2.39l1.812-2.39Zm23.05 10.018-.923-1.182.923 1.182Zm.924 1.182 12.228-9.552-1.847-2.364-12.228 9.552 1.847 2.364Zm-12.213-2.288-11.761-8.912-1.812 2.39 11.76 8.913 1.813-2.391Zm10.366-.076a8.5 8.5 0 0 1-10.366.076l-1.812 2.39a11.5 11.5 0 0 0 14.025-.102l-1.847-2.364Z" fill="#376FFF"/><path d="m20.893 11.34-6.902-3.285L3.5 29.711l7.25 3.38 10.143-21.75Z" stroke="#C1D3DE" stroke-width="3" stroke-linejoin="round"/><path d="M6 56h48" stroke="#C1D3DE" stroke-width="3" stroke-linecap="round"/></svg>