<svg width="40" height="40" fill="none" xmlns="http://www.w3.org/2000/svg"><path fill-rule="evenodd" clip-rule="evenodd" d="M1.667 20c0 10.125 8.208 18.333 18.333 18.333 10.125 0 18.333-8.208 18.333-18.333C38.333 9.875 30.125 1.667 20 1.667 9.875 1.667 1.667 9.875 1.667 20ZM35 20c0 8.284-6.716 15-15 15-8.284 0-15-6.716-15-15 0-8.284 6.716-15 15-15 8.284 0 15 6.716 15 15Zm-13.327 3.33h1.665v3.334h-6.666V23.33h1.666v-3.333h-1.666v-3.333h5v6.666Zm-.005-10a1.667 1.667 0 1 1-3.334 0 1.667 1.667 0 0 1 3.334 0Z" fill="#376FFF"/></svg>