<svg width="60" height="60" fill="none" xmlns="http://www.w3.org/2000/svg"><path d="M30 5v2m-10.5.813 1 1.733M11.813 15.5l1.732 1M9 26h2m.813 10.5 1.732-1M40.5 7.813l-1 1.733m8.687 5.954-1.733 1M51 26h-2m-.813 10.5-1.733-1" stroke="#C1D3DE" stroke-width="3" stroke-linecap="round" stroke-linejoin="round"/><path fill-rule="evenodd" clip-rule="evenodd" d="M24.94 23.94a1.5 1.5 0 0 1 2.12 0L30 26.878l2.94-2.94a1.5 1.5 0 0 1 2.12 2.122l-3.56 3.56V35a1.5 1.5 0 0 1-3 0v-5.379l-3.56-3.56a1.5 1.5 0 0 1 0-2.122ZM35 48.5a1.5 1.5 0 0 0 0-3H25a1.5 1.5 0 1 0 0 3h10Z" fill="#C1D3DE"/><path d="M39.29 15.482c-5.258-4.616-13.535-4.8-19.001.399-2.21 2.098-3.672 4.851-4.118 7.758-.57 3.634.3 7.247 2.427 10.194 5.84 8.045 5.093 14.442 5.176 14.913 0 1.679.643 3.255 1.815 4.432A6.174 6.174 0 0 0 29.997 55c3.434 0 6.224-2.753 6.224-6.141.072-.44-.633-7.452 4.947-14.708A13.536 13.536 0 0 0 44 25.829c0-3.95-1.711-7.717-4.71-10.347Z" stroke="#376FFF" stroke-width="3"/></svg>