<svg width="28" height="28" viewBox="0 0 28 28" fill="none" xmlns="http://www.w3.org/2000/svg">
<path fill-rule="evenodd" clip-rule="evenodd" d="M14.0001 26.8334C6.91243 26.8334 1.16675 21.0877 1.16675 14C1.16675 6.91237 6.91243 1.16669 14.0001 1.16669C21.0877 1.16669 26.8334 6.91237 26.8334 14C26.8334 21.0877 21.0877 26.8334 14.0001 26.8334ZM14.0001 24.5C19.7991 24.5 24.5001 19.799 24.5001 14C24.5001 8.20103 19.7991 3.50002 14.0001 3.50002C8.20109 3.50002 3.50008 8.20103 3.50008 14C3.50008 19.799 8.20109 24.5 14.0001 24.5ZM17.8418 9.67506L11.6667 15.8501L8.99171 13.1751L7.34179 14.825L11.6667 19.1499L19.4917 11.325L17.8418 9.67506Z" fill="#34A853"/>
</svg>
