<svg xmlns="http://www.w3.org/2000/svg" width="60.002" height="60" viewBox="1127 0 60.002 60" fill="none"><path d="m1132.6 53.5-4 4m56-4-4 4m-40-4-4 4m13-4-4 4m12-4-4 4m13-4-4 4m13-4-4 4" stroke="#8b9bab" stroke-width="3" stroke-linecap="round" stroke-linejoin="round"/><path d="m1182.39 15.632 1.46-.359-.01-.033-.01-.033zm-4.71-4.906-.42 1.441.05.013.04.01zM1156.66 9.5V8zm-21.14 1.226.3 1.47.06-.012.06-.017zm-3.02 1.84-1.07-1.053zm-1.81 3.066-1.44-.425-.03.095-.01.098zm0 26.736-1.46.359.01.033.01.033zm1.81 3.066-1.07 1.053zm3.02 1.84-.48 1.42.03.011.03.01zm42.04 0 .43 1.437.02-.008.03-.009zm4.83-4.906 1.43.468.03-.105.02-.109zm-31.17-5.028h-1.5v2.638l2.27-1.35zm14.02-8.34.76 1.289 2.17-1.289-2.17-1.289Zm-14.02-8.34.77-1.289-2.27-1.349v2.638zm-17.56-18.1a1.49 1.49 0 0 0 0-2.12 1.498 1.498 0 0 0-2.12 0zm-6.12 1.88a1.492 1.492 0 0 0 0 2.12c.59.586 1.53.586 2.12 0zm58.12-1.88a1.49 1.49 0 0 0 0-2.12 1.498 1.498 0 0 0-2.12 0zm-6.12 1.88a1.492 1.492 0 0 0 0 2.12c.59.586 1.53.586 2.12 0zm-37.88-1.88a1.49 1.49 0 0 0 0-2.12 1.498 1.498 0 0 0-2.12 0zm-6.12 1.88a1.492 1.492 0 0 0 0 2.12c.59.586 1.53.586 2.12 0zm15.12-1.88a1.49 1.49 0 0 0 0-2.12 1.498 1.498 0 0 0-2.12 0zm-6.12 1.88a1.492 1.492 0 0 0 0 2.12c.59.586 1.53.586 2.12 0zm14.12-1.88a1.49 1.49 0 0 0 0-2.12 1.498 1.498 0 0 0-2.12 0zm-6.12 1.88a1.492 1.492 0 0 0 0 2.12c.59.586 1.53.586 2.12 0zm15.12-1.88a1.49 1.49 0 0 0 0-2.12 1.498 1.498 0 0 0-2.12 0zm-6.12 1.88a1.492 1.492 0 0 0 0 2.12c.59.586 1.53.586 2.12 0zm15.12-1.88a1.49 1.49 0 0 0 0-2.12 1.498 1.498 0 0 0-2.12 0zm-6.12 1.88a1.492 1.492 0 0 0 0 2.12c.59.586 1.53.586 2.12 0zm13.29 10.767a8.666 8.666 0 0 0-2.18-3.694l-2.14 2.106c.68.69 1.15 1.46 1.44 2.438zm-2.18-3.694c-.92-.927-2.13-1.91-3.64-2.25l-.66 2.927c.67.15 1.38.64 2.16 1.429zm-3.55-2.227c-1.22-.355-3.21-.592-5.37-.764-2.2-.175-4.72-.29-7.1-.368a307.91 307.91 0 0 0-8.92-.154h-.05v3h.19l.53.002c.47.003 1.14.007 1.95.017 1.64.02 3.86.057 6.21.133 2.35.077 4.82.19 6.95.36 2.18.174 3.88.397 4.77.655zm-21.44.214V8h-.05a117.243 117.243 0 0 0-.69.002 312.742 312.742 0 0 0-8.29.152c-2.39.077-4.93.193-7.14.368-2.17.172-4.16.409-5.39.764l.84 2.881c.89-.258 2.59-.48 4.78-.654 2.15-.17 4.64-.284 7-.36a309.152 309.152 0 0 1 8.75-.153h.19zm-21.44-.244c-1.64.333-2.86 1.315-3.79 2.257l2.14 2.106c.76-.775 1.47-1.265 2.25-1.423zm-3.79 2.257a8.567 8.567 0 0 0-2.18 3.694l2.88.85c.29-.979.76-1.747 1.44-2.438zm-2.22 3.887c-1.22 7.787-1.86 19.675.02 27.327l2.91-.718c-1.74-7.066-1.17-18.48.03-26.145zm.04 27.393a8.567 8.567 0 0 0 2.18 3.694l2.14-2.106a5.633 5.633 0 0 1-1.44-2.438zm2.18 3.694c1.04 1.055 2.34 1.779 3.61 2.207l.96-2.841c-.91-.308-1.78-.81-2.43-1.472zm3.67 2.227c1.22.355 3.21.592 5.37.764 2.2.175 4.72.29 7.1.368a307.529 307.529 0 0 0 8.92.154h.05v-3h-.19l-.53-.002c-.47-.003-1.14-.007-1.95-.017-1.64-.02-3.86-.057-6.21-.133-2.35-.077-4.82-.19-6.95-.36-2.18-.174-3.88-.397-4.77-.655zm21.44-.214V50h.19l.55-.002a310.764 310.764 0 0 0 8.28-.152c2.38-.077 4.9-.193 7.1-.368 2.15-.171 4.13-.409 5.33-.767l-.86-2.875c-.85.255-2.53.478-4.71.651-2.13.17-4.6.284-6.96.36a307.526 307.526 0 0 1-8.73.153h-.19zm21.5.194c1.27-.428 2.57-1.152 3.61-2.207l-2.14-2.106c-.65.662-1.52 1.164-2.43 1.472zm3.61-2.207c1.04-1.055 1.75-2.373 2.17-3.651l-2.85-.936c-.31.93-.81 1.819-1.46 2.481zm2.22-3.865c1.35-7.822 1.86-19.705-.02-27.349l-2.91.718c1.74 7.073 1.29 18.492-.03 26.123zm-31.88-3.993 14.01-8.34-1.53-2.578-14.01 8.34zM1166 27.71l-14.01-8.34-1.53 2.578 14.01 8.34zm-16.28-7.05v16.68h3V20.66ZM1131.54.438l-4 4 2.12 2.122 4-4zm52 0-4 4 2.12 2.122 4-4zm-44 0-4 4 2.12 2.122 4-4zm9 0-4 4 2.12 2.122 4-4zm8 0-4 4 2.12 2.122 4-4zm9 0-4 4 2.12 2.122 4-4zm9 0-4 4 2.12 2.122 4-4z" fill="#8b9bab"/></svg>