<svg width="92" height="94" fill="none" xmlns="http://www.w3.org/2000/svg"><g filter="url(#a)"><path d="M78.957 47.049c-1.117-1.68-2.646-2.927-4.385-3.97-.038-.017-.049-.045-.087-.063C67.383 36.97 60.207 30.98 53.058 24.98c-4.705-3.98-9.474-7.872-14.116-11.938-6.153-5.35-15.687-3.397-19.22 3.928-.89 1.81-1.222 3.765-1.252 5.768-.015.132-.068.247-.083.378-2.06 11.628-4.093 23.246-6.126 34.864-.497 2.805-.966 5.6-1.472 8.378-.061.18-.104.322-.043.49l-.018.038c-.124.614-.297 1.183-.393 1.787a.225.225 0 0 0-.015.132c.01.028-.008.066-.008.066-.373 2.191-.202 4.311.568 6.34.05.139.102.279.18.408l.02.056a12.446 12.446 0 0 0 1.842 3.061c.048.046.069.102.117.147.048.046.096.092.117.147 3.085 3.526 7.884 5.068 12.547 3.718.54-.165 1.043-.348 1.536-.559 9.402-3.358 18.792-6.84 28.164-10.282 5.556-2.022 11.054-4.118 16.642-6.057a14.03 14.03 0 0 0 1.805-.689c6.92-3.056 9.483-11.736 5.107-18.112Z" fill="#C1D3DE" fill-opacity=".5"/></g><g filter="url(#b)"><path d="M61.767 45.06c-.645-.97-1.527-1.69-2.531-2.292-.038-.017-.066-.05-.097-.077-4.085-3.478-8.212-6.922-12.323-10.372-2.716-2.297-5.47-4.545-8.15-6.892-3.551-3.088-9.056-1.961-11.095 2.268-.514 1.045-.705 2.174-.723 3.33-.008.076-.04.142-.048.218-1.19 6.713-2.363 13.42-3.536 20.127-.285 1.605-.553 3.205-.843 4.794a.673.673 0 0 1-.021.084.364.364 0 0 0-.017.224.05.05 0 0 1-.002.035.053.053 0 0 0-.004.01c-.066.326-.156.63-.212.95-.01.05-.04.104-.022.153.009.024-.007.05-.011.076-.207 1.252-.106 2.462.334 3.621.026.07.051.14.087.206.011.02.021.04.03.062.272.65.636 1.247 1.062 1.767.028.027.04.06.068.086.052.05.091.113.14.166 1.783 1.978 4.515 2.833 7.17 2.065.313-.095.603-.201.887-.323 5.428-1.939 10.849-3.948 16.26-5.936 3.207-1.167 6.381-2.377 9.607-3.497a8.11 8.11 0 0 0 1.042-.397c3.994-1.764 5.475-6.776 2.948-10.457Z" fill="#91A4AF"/></g><path d="M27.78 20.366c.618-1.624 1.469-3.119 2.732-4.33 5.052-4.923 13.403-3.686 16.83 2.5 2.578 4.691 5.31 9.279 7.965 13.919 4.434 7.706 8.919 15.413 13.3 23.146 3.686 6.47-.309 14.64-7.629 15.749-4.485.67-8.686-1.392-11.006-5.413-3.892-6.78-7.81-13.558-11.702-20.311a2.271 2.271 0 0 0-.284-.413c-.412-.335-.592-.825-.85-1.263-1.727-3.041-3.506-6.057-5.233-9.073-1.108-1.959-2.268-3.892-3.376-5.85-1.005-1.753-1.47-3.66-1.418-5.671.078-1.031.206-2.062.67-2.99Z" fill="#3C8BD9"/><path d="M27.78 20.366c-.233.928-.439 1.856-.49 2.835-.078 2.165.464 4.176 1.546 6.057 2.836 4.872 5.67 9.77 8.48 14.667.258.438.464.876.722 1.288a1248.023 1248.023 0 0 1-4.665 8.016c-2.165 3.738-4.33 7.501-6.521 11.239-.104 0-.13-.052-.155-.13-.026-.206.052-.386.103-.592 1.057-3.867.18-7.295-2.474-10.233-1.624-1.779-3.686-2.784-6.058-3.119-3.093-.438-5.825.361-8.273 2.294-.439.335-.722.825-1.238 1.083-.103 0-.154-.052-.18-.13 1.237-2.139 2.449-4.278 3.686-6.417A8712.828 8712.828 0 0 1 27.599 20.65c.052-.104.129-.18.18-.284Z" fill="#FABC04"/><path d="M8.68 53.72c.49-.439.954-.903 1.47-1.315 6.263-4.95 15.67-1.366 17.037 6.47.335 1.88.154 3.685-.413 5.49a2.707 2.707 0 0 1-.103.438c-.232.412-.438.85-.696 1.263-2.294 3.788-5.67 5.67-10.104 5.387-5.077-.361-9.073-4.176-9.768-9.228-.336-2.449.154-4.743 1.417-6.856.258-.464.567-.877.85-1.34.13-.104.078-.31.31-.31Z" fill="#34A852"/><path d="M8.68 53.72c-.103.102-.103.283-.283.309-.026-.18.077-.284.18-.413l.103.103Z" fill="#FABC04"/><path d="M26.671 64.803c-.103-.18 0-.31.103-.439l.103.103-.206.336Z" fill="#E1C025"/><g filter="url(#c)"><path d="M68.608 55.692c-4.382-7.733-8.867-15.44-13.3-23.147-2.655-4.639-5.388-9.227-7.965-13.918-3.428-6.186-11.78-7.423-16.831-2.5-1.263 1.211-2.114 2.706-2.733 4.33-.051.103-.128.18-.18.284a8904.174 8904.174 0 0 0-15.336 26.574c-1.577 2.726-3.228 5.417-4.743 8.145-1.263 2.113-1.753 4.407-1.417 6.856.695 5.052 4.69 8.867 9.768 9.227 4.434.284 7.81-1.598 10.104-5.387 2.596-4.152 4.929-8.574 7.398-12.836 1.572-2.68 4.64-7.99 4.64-7.99s8.136 14.039 11.959 20.698c2.32 4.02 6.521 6.083 11.006 5.412 7.32-1.108 11.315-9.279 7.63-15.748Z" stroke="url(#d)" stroke-opacity=".7" stroke-linecap="round" stroke-linejoin="round"/></g><defs><filter id="a" x=".123" y="0" width="90.993" height="93.233" filterUnits="userSpaceOnUse" color-interpolation-filters="sRGB"><feFlood flood-opacity="0" result="BackgroundImageFix"/><feBlend in="SourceGraphic" in2="BackgroundImageFix" result="shape"/><feGaussianBlur stdDeviation="5" result="effect1_foregroundBlur_265:652"/></filter><filter id="b" x="12.029" y="13.671" width="60.984" height="62.278" filterUnits="userSpaceOnUse" color-interpolation-filters="sRGB"><feFlood flood-opacity="0" result="BackgroundImageFix"/><feBlend in="SourceGraphic" in2="BackgroundImageFix" result="shape"/><feGaussianBlur stdDeviation="5" result="effect1_foregroundBlur_265:652"/></filter><filter id="c" x="3.022" y="10.116" width="74.913" height="69.389" filterUnits="userSpaceOnUse" color-interpolation-filters="sRGB"><feFlood flood-opacity="0" result="BackgroundImageFix"/><feGaussianBlur in="BackgroundImage" stdDeviation="1"/><feComposite in2="SourceAlpha" operator="in" result="effect1_backgroundBlur_265:652"/><feColorMatrix in="SourceAlpha" values="0 0 0 0 0 0 0 0 0 0 0 0 0 0 0 0 0 0 127 0" result="hardAlpha"/><feOffset dx="2.478" dy="2.478"/><feGaussianBlur stdDeviation="2.478"/><feColorMatrix values="0 0 0 0 0.15375 0 0 0 0 0.522433 0 0 0 0 0.9 0 0 0 0.5 0"/><feBlend in2="effect1_backgroundBlur_265:652" result="effect2_dropShadow_265:652"/><feBlend in="SourceGraphic" in2="effect2_dropShadow_265:652" result="shape"/></filter><linearGradient id="d" x1="12.894" y1="32.71" x2="67.24" y2="33.038" gradientUnits="userSpaceOnUse"><stop stop-color="#fff"/><stop offset="1" stop-color="#fff" stop-opacity=".4"/></linearGradient></defs></svg>