<svg width="28" height="28" fill="none" xmlns="http://www.w3.org/2000/svg"><path fill-rule="evenodd" clip-rule="evenodd" d="M14 26.833C6.912 26.833 1.167 21.088 1.167 14S6.912 1.167 14 1.167 26.833 6.912 26.833 14 21.088 26.833 14 26.833Zm0-2.333c5.8 0 10.5-4.701 10.5-10.5S19.8 3.5 14 3.5C8.201 3.5 3.5 8.201 3.5 14S8.201 24.5 14 24.5Zm-3.842-5.008L14 15.65l3.842 3.842 1.65-1.65L15.65 14l3.842-3.842-1.65-1.65L14 12.35l-3.842-3.842-1.65 1.65L12.35 14l-3.842 3.842 1.65 1.65Z" fill="#FF0532"/></svg>