<svg xmlns="http://www.w3.org/2000/svg" width="60.002" height="60" viewBox="767 0 60.002 60" fill="none"><path d="m805.6 5.5.325-1.464A1.5 1.5 0 0 0 804.1 5.5zm18 4 1.485.212a1.5 1.5 0 0 0-1.16-1.676zm-2 14V25a1.5 1.5 0 0 0 1.485-1.288zm-8 0V22a1.5 1.5 0 0 0-1.5 1.5zm0 30V55a1.5 1.5 0 0 0 1.5-1.5zm-34 0h-1.5a1.5 1.5 0 0 0 1.5 1.5zm0-30h1.5a1.5 1.5 0 0 0-1.5-1.5zm-8 0-1.485.212A1.5 1.5 0 0 0 771.6 25Zm-2-14-.325-1.464a1.5 1.5 0 0 0-1.16 1.676zm18-4h1.5a1.5 1.5 0 0 0-1.825-1.464zm9.902 16.553-.644-1.354Zm2.823-.553.006-1.5h-.006zm1.308 12.664.987 1.13zm-4.324 2.98-.674-1.34zm-.709.356-.674 1.34.674.34.674-.34zm-.709-.357.674-1.34zm-4.324-2.979-.987 1.13zm4.151-12.085-.65 1.352zm.874.53-.902 1.199.91.686.905-.694zM813.6 21a1.5 1.5 0 0 0 0-3zm-6-1.5h-1.5a1.501 1.501 0 0 0 1.5 1.5zm1.5-6a1.5 1.5 0 0 0-3 0zM779.6 18a1.5 1.5 0 0 0 0 3zm6 1.5V21a1.5 1.5 0 0 0 1.5-1.5zm1.5-6a1.5 1.5 0 0 0-3 0zm18.175-6.536 18 4 .65-2.928-18-4zm16.84 2.324-2 14 2.97.424 2-14zM821.6 22h-8v3h8zm-9.5 1.5v30h3v-30zm1.5 28.5h-34v3h34zm-32.5 1.5v-30h-3v30zM779.6 22h-8v3h8zm-6.515 1.288-2-14-2.97.424 2 14zm-3.16-12.324 18-4-.65-2.928-18 4zM804.1 5.5c0 3.114-2.77 6.5-7.5 6.5v3c6.27 0 10.5-4.614 10.5-9.5zm-7.5 6.5c-4.73 0-7.5-3.386-7.5-6.5h-3c0 4.886 4.23 9.5 10.5 9.5Zm1.546 11.408c.62-.295 1.148-.408 2.179-.408v-3c-1.337 0-2.336.16-3.467.699zm2.173-.408c2.1.009 3.781 1.713 3.781 4.16h3c0-3.88-2.806-7.144-6.769-7.16zm3.781 4.16c0 1.797-1.027 3.753-3.454 5.875l1.974 2.259c2.735-2.391 4.48-5.1 4.48-8.134zm-3.454 5.875c-1.274 1.113-2.9 2.21-4.011 2.768l1.348 2.68c1.367-.688 3.201-1.934 4.637-3.19zm-4.011 2.768-.709.357 1.348 2.68.709-.357zm.639.357-.709-.357-1.348 2.68.709.357zm-.709-.357c-1.111-.559-2.737-1.655-4.011-2.768l-1.974 2.259c1.436 1.254 3.27 2.501 4.637 3.19zm-4.011-2.768c-2.427-2.122-3.454-4.078-3.454-5.875h-3c0 3.033 1.745 5.743 4.48 8.133zM789.1 27.16c0-2.483 1.661-4.16 3.781-4.16v-3c-3.997 0-6.781 3.248-6.781 7.16zm3.781-4.16c.974 0 1.544.121 2.187.43l1.3-2.703c-1.141-.548-2.177-.727-3.487-.727Zm2.187.43c.224.108.431.234.622.378l1.804-2.397a6.712 6.712 0 0 0-1.126-.684zm2.437.37c.197-.152.411-.282.641-.392l-1.288-2.71c-.418.2-.812.44-1.179.721zM813.6 18h-6v3h6zm-4.5 1.5v-6h-3v6zM779.6 21h6v-3h-6zm7.5-1.5v-6h-3v6z" fill="#8b9bab"/></svg>