<svg width="171" height="48" fill="none" xmlns="http://www.w3.org/2000/svg"><path fill-rule="evenodd" clip-rule="evenodd" d="M58.766 48h8.4L33.6 0 21.394 17.448 15.086 7.356l-4.355 6.226L28.8 41.842l-16.046-.069 4.56-6.568-3.977-6.227L4.39 41.739h-.035L0 48h40.491L25.337 23.743 33.6 11.872 58.766 48Z" fill="#fff"/><path d="M75.075 21.257h4.973c4.416 0 7.008-2.784 7.008-6.797 0-4.032-2.765-6.835-7.066-6.835h-4.915v13.632Zm3.533-3.245V10.87h1.459c1.785 0 3.168 1.555 3.168 3.59 0 1.959-1.363 3.552-3.437 3.552h-1.19Zm13.959 3.245h3.763V7.625h-3.763v13.632Zm16.388.173c2.112 0 4.243-.73 5.472-1.651v-6.336h-5.76v2.937h2.323v1.268a4.641 4.641 0 0 1-2.035.441c-2.112 0-3.302-1.67-3.302-3.629 0-2.323 1.478-3.61 3.149-3.61 1.42 0 2.419.673 3.033 1.268l2.592-2.17c-1.382-1.65-3.629-2.534-5.625-2.534-4.436 0-6.97 3.11-6.97 7.046 0 4.493 3.168 6.97 7.123 6.97Zm11.167-.173h3.763V7.625h-3.763v13.632Zm12.433 0h3.744V10.87h3.398V7.625h-10.54v3.245h3.398v10.387Zm9.883 0h3.82l.692-2.208h4.377l.691 2.208h3.802l-4.934-13.632h-3.495l-4.953 13.632Zm5.452-5.26 1.229-3.937h.039l1.228 3.936h-2.496Zm12.756 5.26h9.082v-3.245h-5.319V7.625h-3.763v13.632Zm-86.627 19.2h3.82l.692-2.208h4.377l.692 2.208h3.8l-4.934-13.632h-3.495L74.02 40.457Zm5.453-5.26L80.7 31.26h.039l1.229 3.936h-2.496Zm18.649 5.433c2.112 0 4.244-.73 5.472-1.651v-6.336h-5.76v2.937h2.324v1.267a4.648 4.648 0 0 1-2.036.442c-2.112 0-3.302-1.67-3.302-3.629 0-2.323 1.478-3.61 3.149-3.61 1.42 0 2.419.673 3.033 1.268l2.592-2.17c-1.382-1.65-3.628-2.534-5.625-2.534-4.435 0-6.97 3.11-6.97 7.046 0 4.493 3.168 6.97 7.123 6.97Zm11.071-.173h9.465v-3.245h-5.932v-1.977h4.32v-3.11h-4.32V30.07h5.529v-3.245h-9.062v13.632Zm14.884 0h3.571v-7.469h.039l4.723 7.47h3.59V26.824h-3.59v7.7l-.039.019-4.819-7.719h-3.475v13.632Zm24.472.193c2.419 0 4.377-1.153 5.548-2.593l-2.668-2.304c-.73.883-1.748 1.383-2.88 1.383-2.055 0-3.284-1.613-3.284-3.476 0-2.304 1.594-3.532 3.284-3.532 1.267 0 2.304.767 2.88 1.42l2.668-2.284a7.236 7.236 0 0 0-5.548-2.65c-4.551 0-7.124 3.13-7.124 7.046 0 4.55 3.092 6.99 7.124 6.99Zm13.978-.193h3.725v-5.894l4.416-7.738h-4.224l-2.016 4.147h-.038l-2.074-4.147h-4.185l4.396 7.738v5.894Z" fill="#fff"/></svg>