<svg width="36" height="24" fill="none" xmlns="http://www.w3.org/2000/svg"><path fill-rule="evenodd" clip-rule="evenodd" d="M10 3h4a2 2 0 0 1 2 2v1h4a2 2 0 0 1 2 2v11a2 2 0 0 1-2 2H4a2 2 0 0 1-2-2V8a2 2 0 0 1 2-2h4V5a2 2 0 0 1 2-2ZM4 8h16v5H4V8Zm0 11v-4h7v1h2v-1h7v4H4ZM14 5v1h-4V5h4Z" fill="#393A56"/><path fill-rule="evenodd" clip-rule="evenodd" d="M28 1h-4a2 2 0 0 0-2 2v1h-4a2 2 0 0 0-2 2h18v5H22v2h3v1h2v-1h7v4H22v2h12a2 2 0 0 0 2-2V6a2 2 0 0 0-2-2h-4V3a2 2 0 0 0-2-2Zm0 3V3h-4v1h4Z" fill="#393A56"/></svg>