<svg width="61" height="61" fill="none" xmlns="http://www.w3.org/2000/svg"><path fill-rule="evenodd" clip-rule="evenodd" d="M29 2.5A3.5 3.5 0 0 0 25.5 6v12a3.5 3.5 0 0 0 3.5 3.5h12a3.5 3.5 0 0 0 3.5-3.5V6A3.5 3.5 0 0 0 41 2.5H29ZM28.5 6a.5.5 0 0 1 .5-.5h12a.5.5 0 0 1 .5.5v12a.5.5 0 0 1-.5.5H29a.5.5 0 0 1-.5-.5V6ZM6 25.5A3.5 3.5 0 0 0 2.5 29v12A3.5 3.5 0 0 0 6 44.5h12a3.5 3.5 0 0 0 3.5-3.5V29a3.5 3.5 0 0 0-3.5-3.5H6ZM5.5 29a.5.5 0 0 1 .5-.5h12a.5.5 0 0 1 .5.5v12a.5.5 0 0 1-.5.5H6a.5.5 0 0 1-.5-.5V29Zm20 0a3.5 3.5 0 0 1 3.5-3.5h8.016a15.947 15.947 0 0 0-6.004 3H29a.5.5 0 0 0-.5.5v2.012a15.947 15.947 0 0 0-3 6.004V29Z" fill="#C1D3DE"/><path d="M4 6a2 2 0 0 1 2-2h12a2 2 0 0 1 2 2v12a2 2 0 0 1-2 2H6a2 2 0 0 1-2-2V6Z" stroke="#376FFF" stroke-width="3"/><path fill-rule="evenodd" clip-rule="evenodd" d="M50.421 28.066A15.928 15.928 0 0 0 41 25c-2.42 0-4.716.538-6.773 1.5H45a2.5 2.5 0 0 1 2.5 2.5v16a2.5 2.5 0 0 1-2.5 2.5H29a2.5 2.5 0 0 1-2.5-2.5V34.227A15.94 15.94 0 0 0 25 41a15.93 15.93 0 0 0 3.066 9.421c.304.052.616.079.934.079h16a5.5 5.5 0 0 0 5.5-5.5V29c0-.318-.027-.63-.079-.934Z" fill="#C1D3DE"/><path fill-rule="evenodd" clip-rule="evenodd" d="M41 26.5c-8.008 0-14.5 6.492-14.5 14.5S32.992 55.5 41 55.5 55.5 49.008 55.5 41 49.008 26.5 41 26.5ZM23.5 41c0-9.665 7.835-17.5 17.5-17.5S58.5 31.335 58.5 41a17.43 17.43 0 0 1-4.11 11.268l5.67 5.671a1.5 1.5 0 0 1-2.12 2.122l-5.672-5.671A17.43 17.43 0 0 1 41 58.5c-9.665 0-17.5-7.835-17.5-17.5Zm16-10a1.5 1.5 0 0 1 1.5-1.5c6.351 0 11.5 5.149 11.5 11.5a1.5 1.5 0 0 1-3 0 8.5 8.5 0 0 0-8.5-8.5 1.5 1.5 0 0 1-1.5-1.5Z" fill="#376FFF"/></svg>