<svg width="61" height="61" fill="none" xmlns="http://www.w3.org/2000/svg"><path d="M11 8a4 4 0 0 1 4-4h18a4 4 0 0 1 4 4v6H11V8Z" stroke="#376FFF" stroke-width="3"/><path fill-rule="evenodd" clip-rule="evenodd" d="M8 12.5A5.5 5.5 0 0 0 2.5 18v22A5.5 5.5 0 0 0 8 45.5h17.642a15.931 15.931 0 0 1-.573-3H8A2.5 2.5 0 0 1 5.5 40V26.5h11V29a3.5 3.5 0 0 0 3.5 3.5h7.442a16.085 16.085 0 0 1 4.058-4.376V26.5h2.727A15.939 15.939 0 0 1 41 25c1.562 0 3.072.224 4.5.642V18a5.5 5.5 0 0 0-5.5-5.5H8ZM5.5 18A2.5 2.5 0 0 1 8 15.5h32a2.5 2.5 0 0 1 2.5 2.5v5.5h-37V18Zm14 8.5h9V29a.5.5 0 0 1-.5.5h-8a.5.5 0 0 1-.5-.5v-2.5Zm31 1.624a15.985 15.985 0 0 0-3-1.749V45a2.5 2.5 0 0 1-2.5 2.5H26.375a15.985 15.985 0 0 0 1.75 3H45a5.5 5.5 0 0 0 5.5-5.5V28.124Z" fill="#C1D3DE"/><path fill-rule="evenodd" clip-rule="evenodd" d="M41 26.5c-8.008 0-14.5 6.492-14.5 14.5S32.992 55.5 41 55.5 55.5 49.008 55.5 41 49.008 26.5 41 26.5ZM23.5 41c0-9.665 7.835-17.5 17.5-17.5S58.5 31.335 58.5 41a17.43 17.43 0 0 1-4.11 11.268l5.67 5.671a1.5 1.5 0 0 1-2.12 2.122l-5.672-5.671A17.43 17.43 0 0 1 41 58.5c-9.665 0-17.5-7.835-17.5-17.5Zm16-10a1.5 1.5 0 0 1 1.5-1.5c6.351 0 11.5 5.149 11.5 11.5a1.5 1.5 0 0 1-3 0 8.5 8.5 0 0 0-8.5-8.5 1.5 1.5 0 0 1-1.5-1.5Z" fill="#376FFF"/></svg>