<svg width="92" height="94" viewBox="0 0 92 94" fill="none" xmlns="http://www.w3.org/2000/svg">
<g filter="url(#filter0_f_265:652)">
<path d="M78.9571 47.0488C77.8395 45.3685 76.3109 44.1224 74.5715 43.0795C74.5335 43.0618 74.5233 43.0338 74.4852 43.0161C67.3827 36.9685 60.2066 30.9792 53.0583 24.9798C48.353 21.0006 43.5841 17.1076 38.9422 13.042C32.7893 7.6922 23.2546 9.64473 19.7229 16.9699C18.8323 18.7803 18.5003 20.7352 18.4704 22.7382C18.4552 22.8702 18.402 22.9845 18.3868 23.1165C16.3262 34.7444 14.2936 46.3621 12.261 57.9797C11.7643 60.7852 11.2954 63.5804 10.7885 66.3579C10.7276 66.5382 10.6845 66.6803 10.7455 66.8479L10.7277 66.886C10.6035 67.5004 10.4311 68.0691 10.3348 68.6733C10.317 68.7114 10.3094 68.7774 10.3196 68.8053C10.3297 68.8333 10.312 68.8713 10.312 68.8713C9.93943 71.0624 10.1101 73.1821 10.88 75.2103C10.9308 75.3499 10.9816 75.4895 11.0603 75.619C11.0705 75.6469 11.0705 75.6469 11.0807 75.6748C11.5532 76.7993 12.1831 77.8349 12.9221 78.736C12.9704 78.7816 12.9907 78.8375 13.0389 78.8832C13.0872 78.9289 13.1354 78.9745 13.1558 79.0304C16.2413 82.5557 21.0399 84.0978 25.7031 82.7484C26.2438 82.5832 26.7464 82.4003 27.2389 82.1895C36.6412 78.8305 46.0308 75.3497 55.4027 71.907C60.9593 69.8846 66.4575 67.7885 72.0446 65.8499C72.6412 65.6644 73.2555 65.4408 73.8495 65.1613C80.7691 62.1052 83.3331 53.4247 78.9571 47.0488Z" fill="#C1D3DE" fill-opacity="0.5"/>
</g>
<g filter="url(#filter1_f_265:652)">
<path d="M61.7674 45.0594C61.1222 44.0894 60.2397 43.37 59.2356 42.768C59.1982 42.7505 59.1699 42.7178 59.1385 42.6911C55.0536 39.2134 50.9268 35.7691 46.816 32.319C44.0996 30.0217 41.3465 27.7743 38.6667 25.4272C35.1147 22.3388 29.6102 23.466 27.5713 27.6948C27.0572 28.74 26.8656 29.8685 26.8483 31.0249C26.8395 31.1011 26.8088 31.1671 26.8 31.2433C25.6105 37.9561 24.437 44.663 23.2636 51.3699C22.9794 52.9751 22.711 54.5746 22.4213 56.164C22.4161 56.1924 22.4087 56.2203 22.3999 56.2478C22.3747 56.3271 22.3604 56.3954 22.3828 56.4716C22.3862 56.4832 22.3858 56.4957 22.3807 56.5066C22.3792 56.5099 22.3781 56.5133 22.3773 56.5168C22.311 56.8433 22.2214 57.1476 22.1646 57.4664C22.1555 57.5174 22.1251 57.5709 22.1428 57.6196C22.1517 57.644 22.1361 57.6707 22.1319 57.6964C21.9254 58.9475 22.0264 60.1582 22.4663 61.3172C22.4918 61.3872 22.5173 61.4572 22.5533 61.5234C22.5642 61.5434 22.5744 61.5639 22.5822 61.5853C22.855 62.2345 23.2186 62.8324 23.6452 63.3525C23.6731 63.3789 23.6848 63.4112 23.7127 63.4375C23.7652 63.4873 23.8045 63.5507 23.853 63.6045C25.6364 65.5815 28.3681 66.4374 31.0238 65.6689C31.3359 65.5736 31.6261 65.468 31.9103 65.3463C37.3384 63.4071 42.759 61.3977 48.1694 59.4102C51.3773 58.2426 54.5514 57.0326 57.7768 55.9134C58.1212 55.8063 58.4759 55.6772 58.8188 55.5159C62.8135 53.7516 64.2937 48.7403 61.7674 45.0594Z" fill="#91A4AF"/>
</g>
<path d="M27.7795 20.366C28.3981 18.7421 29.2487 17.2472 30.5117 16.0357C35.5636 11.1127 43.9148 12.3499 47.3429 18.5359C49.9204 23.227 52.6526 27.815 55.3075 32.4546C59.7408 40.1614 64.2257 47.8682 68.6075 55.6008C72.2934 62.0704 68.2982 70.2411 60.978 71.3495C56.4931 72.0196 52.2918 69.9576 49.972 65.9367C46.0799 59.1578 42.1621 52.3789 38.27 45.6257C38.1927 45.4711 38.0896 45.3422 37.9865 45.2133C37.5741 44.8783 37.3937 44.3885 37.1359 43.9504C35.409 40.9089 33.6305 37.8932 31.9035 34.8775C30.7952 32.9185 29.6353 30.9854 28.527 29.0265C27.5217 27.2738 27.0578 25.3664 27.1093 23.3559C27.1867 22.3249 27.3155 21.2939 27.7795 20.366Z" fill="#3C8BD9"/>
<path d="M27.7795 20.366C27.5475 21.2939 27.3413 22.2218 27.2898 23.2012C27.2124 25.3664 27.7537 27.3768 28.8363 29.2584C31.6716 34.13 34.5068 39.0273 37.3163 43.9246C37.5741 44.3627 37.7803 44.8009 38.038 45.2133C36.4915 47.894 34.945 50.5488 33.3727 53.2294C31.2076 56.9669 29.0425 60.73 26.8516 64.4675C26.7485 64.4675 26.7227 64.4159 26.6969 64.3386C26.6712 64.1324 26.7485 63.952 26.8 63.7458C27.8568 59.8795 26.9805 56.4513 24.3256 53.513C22.7018 51.7345 20.6397 50.7292 18.2684 50.3942C15.1754 49.956 12.4432 50.755 9.99454 52.6882C9.55636 53.0232 9.27284 53.513 8.75733 53.7707C8.65423 53.7707 8.60268 53.7192 8.5769 53.6418C9.81412 51.5025 11.0256 49.3632 12.2628 47.2238C17.3663 38.3571 22.4698 29.4904 27.5991 20.6495C27.6506 20.5464 27.7279 20.4691 27.7795 20.366Z" fill="#FABC04"/>
<path d="M8.68006 53.7192C9.16979 53.281 9.63374 52.8171 10.1492 52.4047C16.4126 47.4558 25.8206 51.0386 27.1867 58.8743C27.5218 60.7559 27.3414 62.5601 26.7743 64.3644C26.7485 64.519 26.7227 64.6479 26.6712 64.8026C26.4392 65.215 26.233 65.6532 25.9753 66.0656C23.6813 69.8545 20.3047 71.7361 15.8714 71.4526C10.7936 71.0917 6.79846 67.277 6.10253 62.225C5.76745 59.7764 6.25718 57.4824 7.52017 55.3688C7.77792 54.9049 8.08723 54.4925 8.37075 54.0285C8.49963 53.9254 8.44808 53.7192 8.68006 53.7192Z" fill="#34A852"/>
<path d="M8.68011 53.7192C8.57701 53.8223 8.57701 54.0027 8.39658 54.0285C8.37081 53.8481 8.47391 53.745 8.57701 53.6161L8.68011 53.7192Z" fill="#FABC04"/>
<path d="M26.6711 64.8026C26.568 64.6221 26.6711 64.4933 26.7742 64.3644C26.8 64.3902 26.8516 64.4417 26.8773 64.4675L26.6711 64.8026Z" fill="#E1C025"/>
<g filter="url(#filter2_bd_265:652)">
<path d="M68.6076 55.6917C64.2258 47.9591 59.7409 40.2523 55.3075 32.5455C52.6527 27.906 49.9205 23.318 47.343 18.6269C43.9149 12.4408 35.5637 11.2036 30.5117 16.1267C29.2487 17.3381 28.3981 18.8331 27.7795 20.4569C27.728 20.56 27.6507 20.6374 27.5991 20.7405C22.4698 29.5814 17.3663 38.4481 12.2628 47.3148C10.686 50.0413 9.03543 52.7323 7.52017 55.4597C6.25718 57.5733 5.76745 59.8673 6.10253 62.316C6.79846 67.3679 10.7936 71.1827 15.8714 71.5435C20.3047 71.827 23.6813 69.9454 25.9753 66.1565C28.5706 62.0039 30.904 57.5819 33.3728 53.3204C34.9451 50.6398 38.0123 45.3301 38.0123 45.3301C38.0123 45.3301 46.1489 59.3688 49.972 66.0276C52.2918 70.0485 56.4932 72.1106 60.9781 71.4404C68.2983 70.3321 72.2934 62.1613 68.6076 55.6917Z" stroke="url(#paint0_linear_265:652)" stroke-opacity="0.7" stroke-linecap="round" stroke-linejoin="round"/>
</g>
<defs>
<filter id="filter0_f_265:652" x="0.122559" y="0" width="90.9932" height="93.233" filterUnits="userSpaceOnUse" color-interpolation-filters="sRGB">
<feFlood flood-opacity="0" result="BackgroundImageFix"/>
<feBlend mode="normal" in="SourceGraphic" in2="BackgroundImageFix" result="shape"/>
<feGaussianBlur stdDeviation="5" result="effect1_foregroundBlur_265:652"/>
</filter>
<filter id="filter1_f_265:652" x="12.0291" y="13.6711" width="60.9844" height="62.2776" filterUnits="userSpaceOnUse" color-interpolation-filters="sRGB">
<feFlood flood-opacity="0" result="BackgroundImageFix"/>
<feBlend mode="normal" in="SourceGraphic" in2="BackgroundImageFix" result="shape"/>
<feGaussianBlur stdDeviation="5" result="effect1_foregroundBlur_265:652"/>
</filter>
<filter id="filter2_bd_265:652" x="3.02222" y="10.1158" width="74.9131" height="69.389" filterUnits="userSpaceOnUse" color-interpolation-filters="sRGB">
<feFlood flood-opacity="0" result="BackgroundImageFix"/>
<feGaussianBlur in="BackgroundImage" stdDeviation="1"/>
<feComposite in2="SourceAlpha" operator="in" result="effect1_backgroundBlur_265:652"/>
<feColorMatrix in="SourceAlpha" type="matrix" values="0 0 0 0 0 0 0 0 0 0 0 0 0 0 0 0 0 0 127 0" result="hardAlpha"/>
<feOffset dx="2.47778" dy="2.47778"/>
<feGaussianBlur stdDeviation="2.47778"/>
<feColorMatrix type="matrix" values="0 0 0 0 0.15375 0 0 0 0 0.522433 0 0 0 0 0.9 0 0 0 0.5 0"/>
<feBlend mode="normal" in2="effect1_backgroundBlur_265:652" result="effect2_dropShadow_265:652"/>
<feBlend mode="normal" in="SourceGraphic" in2="effect2_dropShadow_265:652" result="shape"/>
</filter>
<linearGradient id="paint0_linear_265:652" x1="12.8943" y1="32.7101" x2="67.2401" y2="33.0385" gradientUnits="userSpaceOnUse">
<stop stop-color="white"/>
<stop offset="1" stop-color="white" stop-opacity="0.4"/>
</linearGradient>
</defs>
</svg>
