<svg width="52" height="54" viewBox="0 0 52 54" fill="none" xmlns="http://www.w3.org/2000/svg">
<path d="M2 50.5C1.17157 50.5 0.5 51.1716 0.5 52C0.5 52.8284 1.17157 53.5 2 53.5V50.5ZM50 53.5C50.8284 53.5 51.5 52.8284 51.5 52C51.5 51.1716 50.8284 50.5 50 50.5V53.5ZM16.0607 20.9393C15.4749 20.3536 14.5251 20.3536 13.9393 20.9393C13.3536 21.5251 13.3536 22.4749 13.9393 23.0607L16.0607 20.9393ZM23 30L21.9393 31.0607C22.5251 31.6464 23.4749 31.6464 24.0607 31.0607L23 30ZM38.0607 17.0607C38.6464 16.4749 38.6464 15.5251 38.0607 14.9393C37.4749 14.3536 36.5251 14.3536 35.9393 14.9393L38.0607 17.0607ZM2 53.5H50V50.5H2V53.5ZM26 42.5C15.2304 42.5 6.5 33.7696 6.5 23H3.5C3.5 35.4264 13.5736 45.5 26 45.5V42.5ZM6.5 23C6.5 12.2304 15.2304 3.5 26 3.5V0.5C13.5736 0.5 3.5 10.5736 3.5 23H6.5ZM26 3.5C36.7696 3.5 45.5 12.2304 45.5 23H48.5C48.5 10.5736 38.4264 0.5 26 0.5V3.5ZM45.5 23C45.5 33.7696 36.7696 42.5 26 42.5V45.5C38.4264 45.5 48.5 35.4264 48.5 23H45.5ZM13.9393 23.0607L21.9393 31.0607L24.0607 28.9393L16.0607 20.9393L13.9393 23.0607ZM24.0607 31.0607L38.0607 17.0607L35.9393 14.9393L21.9393 28.9393L24.0607 31.0607Z" fill="#376FFF"/>
</svg>
