<svg width="40" height="40" viewBox="0 0 40 40" fill="none" xmlns="http://www.w3.org/2000/svg">
<path fill-rule="evenodd" clip-rule="evenodd" d="M1.66675 20C1.66675 30.1252 9.87486 38.3333 20.0001 38.3333C30.1253 38.3333 38.3334 30.1252 38.3334 20C38.3334 9.87474 30.1253 1.66663 20.0001 1.66663C9.87486 1.66663 1.66675 9.87474 1.66675 20ZM35.0001 20C35.0001 28.2842 28.2844 35 20.0001 35C11.7158 35 5.00008 28.2842 5.00008 20C5.00008 11.7157 11.7158 4.99996 20.0001 4.99996C28.2844 4.99996 35.0001 11.7157 35.0001 20ZM21.6728 23.3305H23.3383V26.6639H16.6717V23.3305H18.3383V19.9972H16.6717V16.6639H21.6728V23.3305ZM21.6678 13.3305C21.6678 14.251 20.9214 14.9972 20.0006 14.9972C19.0799 14.9972 18.3334 14.251 18.3334 13.3305C18.3334 12.4101 19.0799 11.6639 20.0006 11.6639C20.9214 11.6639 21.6678 12.4101 21.6678 13.3305Z" fill="#376FFF"/>
</svg>
