<svg width="171" height="48" viewBox="0 0 171 48" fill="none" xmlns="http://www.w3.org/2000/svg">
<path fill-rule="evenodd" clip-rule="evenodd" d="M58.7657 48H67.1657L33.6 0L21.3943 17.4483L15.0857 7.35567L10.7314 13.5823L28.8 41.8418L12.7543 41.7733L17.3143 35.2046L13.3371 28.9779L4.38857 41.7391H4.35429L0 48H8.4H8.43429H40.4914L25.3371 23.7434L33.6 11.8717L58.7657 48Z" fill="white"/>
<path d="M75.0748 21.2571H80.0476C84.4636 21.2571 87.0556 18.4731 87.0556 14.4603C87.0556 10.4283 84.2908 7.62514 79.99 7.62514H75.0748V21.2571ZM78.6076 18.0123V10.8699H80.0668C81.8524 10.8699 83.2348 12.4251 83.2348 14.4603C83.2348 16.4187 81.8716 18.0123 79.798 18.0123H78.6076Z" fill="white"/>
<path d="M92.5666 21.2571H96.3298V7.62514H92.5666V21.2571Z" fill="white"/>
<path d="M108.955 21.4299C111.067 21.4299 113.198 20.7003 114.427 19.7787V13.4427H108.667V16.3803H110.99V17.6475C110.261 17.9739 109.666 18.0891 108.955 18.0891C106.843 18.0891 105.653 16.4187 105.653 14.4603C105.653 12.1371 107.131 10.8507 108.802 10.8507C110.222 10.8507 111.221 11.5227 111.835 12.1179L114.427 9.94834C113.045 8.29714 110.798 7.41394 108.802 7.41394C104.366 7.41394 101.832 10.5243 101.832 14.4603C101.832 18.9531 105 21.4299 108.955 21.4299Z" fill="white"/>
<path d="M120.122 21.2571H123.885V7.62514H120.122V21.2571Z" fill="white"/>
<path d="M132.555 21.2571H136.299V10.8699H139.697V7.62514H129.157V10.8699H132.555V21.2571Z" fill="white"/>
<path d="M142.438 21.2571H146.258L146.95 19.0491H151.327L152.018 21.2571H155.82L150.886 7.62514H147.391L142.438 21.2571ZM147.89 15.9963L149.119 12.0603H149.158L150.386 15.9963H147.89Z" fill="white"/>
<path d="M160.646 21.2571H169.728V18.0123H164.409V7.62514H160.646V21.2571Z" fill="white"/>
<path d="M74.0188 40.4571H77.8396L78.5308 38.2491H82.9084L83.5996 40.4571H87.4012L82.4668 26.8251H78.9724L74.0188 40.4571ZM79.4716 35.1963L80.7004 31.2603H80.7388L81.9676 35.1963H79.4716Z" fill="white"/>
<path d="M98.1214 40.6299C100.233 40.6299 102.365 39.9003 103.593 38.9787V32.6427H97.8334V35.5803H100.157V36.8475C99.427 37.1739 98.8318 37.2891 98.1214 37.2891C96.0094 37.2891 94.819 35.6187 94.819 33.6603C94.819 31.3371 96.2974 30.0507 97.9678 30.0507C99.3886 30.0507 100.387 30.7227 101.001 31.3179L103.593 29.1483C102.211 27.4971 99.9646 26.6139 97.9678 26.6139C93.5326 26.6139 90.9982 29.7243 90.9982 33.6603C90.9982 38.1531 94.1662 40.6299 98.1214 40.6299Z" fill="white"/>
<path d="M109.192 40.4571H118.657V37.2123H112.725V35.2347H117.045V32.1243H112.725V30.0699H118.254V26.8251H109.192V40.4571Z" fill="white"/>
<path d="M124.076 40.4571H127.647V32.9883H127.686L132.409 40.4571H135.999V26.8251H132.409V34.5243L132.37 34.5435L127.551 26.8251H124.076V40.4571Z" fill="white"/>
<path d="M148.548 40.6491C150.967 40.6491 152.925 39.4971 154.096 38.0571L151.428 35.7531C150.698 36.6363 149.68 37.1355 148.548 37.1355C146.493 37.1355 145.264 35.5227 145.264 33.6603C145.264 31.3563 146.858 30.1275 148.548 30.1275C149.815 30.1275 150.852 30.8955 151.428 31.5483L154.096 29.2635C152.56 27.4011 150.41 26.6139 148.548 26.6139C143.997 26.6139 141.424 29.7435 141.424 33.6603C141.424 38.2107 144.516 40.6491 148.548 40.6491Z" fill="white"/>
<path d="M162.526 40.4571H166.251V34.5627L170.667 26.8251H166.443L164.427 30.9723H164.389L162.315 26.8251H158.13L162.526 34.5627V40.4571Z" fill="white"/>
</svg>
